<svg id="Group_3" data-name="Group 3" xmlns="http://www.w3.org/2000/svg" xmlns:xlink="http://www.w3.org/1999/xlink" width="207.189" height="127.78" viewBox="0 0 207.189 127.78">
  <defs>
    <clipPath id="clip-path">
      <rect id="Rectangle_2" data-name="Rectangle 2" width="207.189" height="127.78" fill="#083a3e"/>
    </clipPath>
  </defs>
  <g id="Group_2" data-name="Group 2" clip-path="url(#clip-path)">
    <path id="Path_1" data-name="Path 1" d="M148.243,53.956c-22.064-11.288-34.4-24.945-19.7-44.378,5.947,4.024,10.593,9.364,16.539,13.391,46.339-44.669,65.356,39.2,26.2,38.552-22.563-.372-12.76-21.8-5.714-33.3.6-.983,1.29-2.023,1.99-3.052l-.022,33.263a29.268,29.268,0,0,0,5.48.276V17.065l-1.367,1.3c.395-.326.612-.458.683-.427.256-.554-.784.357-4.228,3.792l-.179.179-.323.317-.067.069c-1,1.005-2.19,2.206-3.577,3.626-12.915,13.193-19.373,40.829,7.047,40.94,4.968.02,9.937-1.878,14.783-5.027.611-.447,2.523-2.293,3.741-3.448A36.14,36.14,0,1,1,141.676,111.1a40.183,40.183,0,1,0,52.293-58.53c-.15.268-.3.52-.455.778,10.431-17.318,2.361-43.666-20.064-46.658-10.381-1.384-18.717,3.353-28.843,11.544L132.136,6.742a4.65,4.65,0,1,0-7.792.8c-21.129,26.177,3.128,38.707,23.9,46.409m45.271-.6c-.9,1.492-.446.74,0,0m-20.5,16.2v44.313h-5.48V69.312a19.214,19.214,0,0,0,5.48.238M150.73,22.709A3.283,3.283,0,1,1,147.45,26v0a3.284,3.284,0,0,1,3.279-3.284" transform="translate(-7.262 0)" fill="#083a3e" fill-rule="evenodd"/>
    <path id="Path_2" data-name="Path 2" d="M17.955,94.893v4.951H5.557v5.131H16.708v4.738H5.557v5.165H18.347V119.8H0v-24.9Z" transform="translate(0 -5.931)" fill="#083a3e"/>
    <path id="Path_3" data-name="Path 3" d="M23.331,119.795v-3.812L36.37,99.7H23.759V94.893h20.2V98.74l-13,16.209H44.172v4.845Z" transform="translate(-1.458 -5.931)" fill="#083a3e"/>
    <rect id="Rectangle_1" data-name="Rectangle 1" width="12.683" height="4.739" transform="translate(46.882 100.789)" fill="#083a3e"/>
    <path id="Path_4" data-name="Path 4" d="M76.9,109.214l4.417-14.32h5.807l4.383,14.32,4.952-14.32h6.021l-8.693,24.9H89.657l-5.451-17.314-5.415,17.314H74.659l-8.693-24.9h6.021Z" transform="translate(-4.123 -5.931)" fill="#083a3e"/>
    <path id="Path_5" data-name="Path 5" d="M128.924,116.319a13.57,13.57,0,0,1-18.6,0,13.029,13.029,0,0,1,0-18.348,13.57,13.57,0,0,1,18.6,0,13.032,13.032,0,0,1,0,18.348m-1.888-9.156a8.154,8.154,0,0,0-2.137-5.683,7.049,7.049,0,0,0-10.509,0,8.6,8.6,0,0,0,0,11.348,7.085,7.085,0,0,0,10.509,0,8.088,8.088,0,0,0,2.137-5.664" transform="translate(-6.659 -5.893)" fill="#083a3e"/>
    <path id="Path_6" data-name="Path 6" d="M160.312,116.319a13.57,13.57,0,0,1-18.6,0,13.029,13.029,0,0,1,0-18.348,13.57,13.57,0,0,1,18.6,0,13.032,13.032,0,0,1,0,18.348m-1.888-9.156a8.154,8.154,0,0,0-2.137-5.683,7.049,7.049,0,0,0-10.509,0,8.6,8.6,0,0,0,0,11.348,7.085,7.085,0,0,0,10.509,0,8.088,8.088,0,0,0,2.137-5.664" transform="translate(-8.621 -5.893)" fill="#083a3e"/>
    <path id="Path_7" data-name="Path 7" d="M187.946,94.893v4.88H176.4v5.379h10.973v4.881H176.4V119.8h-5.557v-24.9Z" transform="translate(-10.678 -5.931)" fill="#083a3e"/>
  </g>
</svg>
