<svg xmlns="http://www.w3.org/2000/svg" width="24.5" height="16.281" viewBox="0 0 24.5 16.281">
  <g id="meta" transform="translate(0 -85.881)">
    <path id="Path_88" data-name="Path 88" d="M17.583,85.881c-2.009,0-3.579,1.513-5,3.435C10.629,86.829,9,85.881,7.04,85.881,3.054,85.881,0,91.068,0,96.559c0,3.436,1.662,5.6,4.446,5.6,2,0,3.445-.945,6.007-5.423,0,0,1.068-1.886,1.8-3.185q.386.624.813,1.344l1.2,2.021c2.34,3.916,3.644,5.244,6.007,5.244,2.712,0,4.222-2.2,4.222-5.7,0-5.749-3.123-10.577-6.917-10.577ZM8.5,95.526c-2.077,3.256-2.8,3.986-3.952,3.986-1.19,0-1.9-1.045-1.9-2.908,0-3.986,1.987-8.062,4.357-8.062,1.283,0,2.355.741,4,3.092C9.444,94.026,8.5,95.526,8.5,95.526Zm7.84-.41L14.9,92.72q-.583-.948-1.121-1.746c1.295-2,2.363-2.994,3.633-2.994,2.639,0,4.75,3.885,4.75,8.657,0,1.819-.6,2.874-1.83,2.874-1.183,0-1.748-.781-3.995-4.4Z" fill="#fff"/>
  </g>
</svg>
