<svg xmlns="http://www.w3.org/2000/svg" xmlns:xlink="http://www.w3.org/1999/xlink" width="354" height="354" viewBox="0 0 354 354">
  <defs>
    <clipPath id="clip-path">
      <circle id="Ellipse_10" data-name="Ellipse 10" cx="177" cy="177" r="177" transform="translate(37 143)" fill="#fff" stroke="#707070" stroke-width="1"/>
    </clipPath>
  </defs>
  <g id="Mask_Group_2" data-name="Mask Group 2" transform="translate(-37 -143)" clip-path="url(#clip-path)">
    <g id="undraw_confirm_re_69me" transform="translate(39.303 198)">
      <rect id="Rectangle_68" data-name="Rectangle 68" width="333.989" height="0.918" transform="translate(6.223 229.539)" fill="#083a3e"/>
      <circle id="Ellipse_7" data-name="Ellipse 7" cx="6.428" cy="6.428" r="6.428" transform="translate(0 223.571)" fill="#083a3e"/>
      <circle id="Ellipse_8" data-name="Ellipse 8" cx="6.428" cy="6.428" r="6.428" transform="translate(336.539 223.571)" fill="#083a3e"/>
      <path id="Path_89" data-name="Path 89" d="M469.211,422.548H338.36a4.137,4.137,0,0,1-4.132-4.132V196.658a4.137,4.137,0,0,1,4.132-4.132H469.211a4.137,4.137,0,0,1,4.132,4.132V418.415a4.137,4.137,0,0,1-4.132,4.132ZM338.36,193.444a3.218,3.218,0,0,0-3.214,3.214V418.415a3.218,3.218,0,0,0,3.214,3.214H469.211a3.218,3.218,0,0,0,3.214-3.214V196.658a3.218,3.218,0,0,0-3.214-3.214Z" transform="translate(-281.553 -192.526)" fill="#3f3d56"/>
      <path id="Path_90" data-name="Path 90" d="M482,220.444H446.187a.459.459,0,0,1,0-.918H482a.459.459,0,0,1,0,.918Z" transform="translate(-341.861 -207.129)" fill="#3f3d56"/>
      <path id="Path_91" data-name="Path 91" d="M471.367,435.767H370.36a4.137,4.137,0,0,1-4.132-4.132V251.658a4.137,4.137,0,0,1,4.132-4.132H471.367a4.137,4.137,0,0,1,4.132,4.132V431.635a4.137,4.137,0,0,1-4.132,4.132ZM370.36,248.444a3.218,3.218,0,0,0-3.214,3.214V431.635a3.218,3.218,0,0,0,3.214,3.214H471.367a3.218,3.218,0,0,0,3.214-3.214V251.658a3.218,3.218,0,0,0-3.214-3.214Z" transform="translate(-298.861 -222.274)" fill="#3f3d56"/>
      <path id="Path_92" data-name="Path 92" d="M637.294,280.381a2.068,2.068,0,0,1-2.066-2.066v-8.723a2.066,2.066,0,0,1,4.132,0v8.723a2.068,2.068,0,0,1-2.066,2.066Zm0-11.937a1.149,1.149,0,0,0-1.148,1.148v8.723a1.148,1.148,0,0,0,2.3,0v-8.723A1.149,1.149,0,0,0,637.294,268.444Z" transform="translate(-444.357 -233.091)" fill="#3f3d56"/>
      <path id="Path_93" data-name="Path 93" d="M637.294,311.381a2.068,2.068,0,0,1-2.066-2.066v-8.723a2.066,2.066,0,0,1,4.132,0v8.723a2.068,2.068,0,0,1-2.066,2.066Zm0-11.937a1.149,1.149,0,0,0-1.148,1.148v8.723a1.148,1.148,0,0,0,2.3,0v-8.723A1.149,1.149,0,0,0,637.294,299.444Z" transform="translate(-444.357 -249.858)" fill="#3f3d56"/>
      <path id="Path_94" data-name="Path 94" d="M475.851,398.043H406.983a2.755,2.755,0,0,1,0-5.51h68.869a2.755,2.755,0,0,1,0,5.51Z" transform="translate(-319.415 -300.705)" fill="#ccc"/>
      <path id="Path_95" data-name="Path 95" d="M475.851,425.043H406.983a2.755,2.755,0,0,1,0-5.51h68.869a2.755,2.755,0,0,1,0,5.51Z" transform="translate(-319.415 -315.308)" fill="#ccc"/>
      <path id="Path_96" data-name="Path 96" d="M475.851,452.043H406.983a2.755,2.755,0,0,1,0-5.51h68.869a2.755,2.755,0,0,1,0,5.51Z" transform="translate(-319.415 -329.912)" fill="#ccc"/>
      <path id="Path_97" data-name="Path 97" d="M474.646,365.634h-22.27a5.05,5.05,0,1,1,0-10.1h22.27a5.05,5.05,0,1,1,0,10.1Z" transform="translate(-342.725 -280.692)" fill="#055b65"/>
      <path id="Path_98" data-name="Path 98" d="M427.408,525.95a10,10,0,1,1,10-10h0a10.014,10.014,0,0,1-10,10Zm0-18.953a8.95,8.95,0,1,0,8.95,8.95,8.95,8.95,0,0,0-8.95-8.95Z" transform="translate(-326.542 -362.046)" fill="#3f3d56"/>
      <path id="Path_99" data-name="Path 99" d="M433.548,516.37a1.146,1.146,0,0,1-.811-.337l-3.675-3.676a1.147,1.147,0,0,1,0-1.623l.19-.191a1.15,1.15,0,0,1,1.623,0l1.905,1.905a.689.689,0,0,0,1.05-.091l8.125-11.547a1.149,1.149,0,0,1,1.6-.278l.221.156a1.148,1.148,0,0,1,.278,1.6l-9.567,13.594a1.145,1.145,0,0,1-.84.483C433.614,516.369,433.581,516.37,433.548,516.37Z" transform="translate(-332.665 -359.006)" fill="#055b65"/>
      <path id="Path_100" data-name="Path 100" d="M513.409,525.95a10,10,0,1,1,10-10h0A10.014,10.014,0,0,1,513.409,525.95Zm0-18.953a8.95,8.95,0,1,0,8.95,8.95,8.95,8.95,0,0,0-8.95-8.95Z" transform="translate(-373.057 -362.046)" fill="#3f3d56"/>
      <path id="Path_101" data-name="Path 101" d="M522.995,526.916h0a1.138,1.138,0,0,1-.811-.338l-1.9-1.91a.706.706,0,0,0-.975,0l-1.9,1.91a1.14,1.14,0,0,1-.811.337h0a1.139,1.139,0,0,1-.81-.335l-.19-.189a1.15,1.15,0,0,1,0-1.623l1.913-1.919a.69.69,0,0,0,0-.972l-1.957-1.964a1.149,1.149,0,0,1,0-1.623l.191-.19a1.139,1.139,0,0,1,.81-.335h0a1.139,1.139,0,0,1,.811.338l1.949,1.954a.706.706,0,0,0,.975,0l1.949-1.954a1.139,1.139,0,0,1,.811-.338h0a1.139,1.139,0,0,1,.81.335l.191.19a1.149,1.149,0,0,1,0,1.623l-1.957,1.963a.69.69,0,0,0,0,.972L524,524.769a1.149,1.149,0,0,1,0,1.623l-.191.19A1.138,1.138,0,0,1,522.995,526.916Z" transform="translate(-379.438 -368.44)" fill="#ccc"/>
      <path id="Path_102" data-name="Path 102" d="M601.462,461.832h5.87l2.794-22.641h-8.664Z" transform="translate(-325.315 -237.547)" fill="#e29578"/>
      <path id="Path_103" data-name="Path 103" d="M0,0H18.448V7.128H7.029A7.029,7.029,0,0,1,0,.1V0Z" transform="translate(293.337 229.735) rotate(180)" fill="#083a3e"/>
      <path id="Path_104" data-name="Path 104" d="M579.6,393.694l-4.049,4.25-18.32-13.594,5.975-6.273Z" transform="translate(-301.395 -204.493)" fill="#e29578"/>
      <path id="Path_105" data-name="Path 105" d="M7.029,0H18.448V7.128H0v-.1A7.029,7.029,0,0,1,7.029,0Z" transform="matrix(0.69, -0.724, 0.724, 0.69, 265.139, 200.489)" fill="#083a3e"/>
      <path id="Path_106" data-name="Path 106" d="M874,392.059a4.815,4.815,0,0,0-2.3-7.014L848.65,326.309l-8.983,5.379,25.6,56.348A4.841,4.841,0,0,0,874,392.059Z" transform="translate(-554.933 -264.886)" fill="#e29578"/>
      <path id="Path_107" data-name="Path 107" d="M717.773,404.177a4.815,4.815,0,0,0,4.324-5.984l34-53.151-9.629-4.111L715.9,394.748a4.841,4.841,0,0,0,1.873,9.43Z" transform="translate(-486.181 -272.794)" fill="#e29578"/>
      <path id="Path_108" data-name="Path 108" d="M801.32,451.722l-6.018,89.44-14.382-1.269-2.961-65.986-8.037,28.34-17.342,1.269,6.864-56.024Z" transform="translate(-507.83 -330.43)" fill="#083a3e"/>
      <path id="Path_109" data-name="Path 109" d="M767.233,557.539l2.538,4.23,17.766,12.267-12.69,6.768s-24.533-13.536-22.418-17.766Z" transform="translate(-507.677 -389.952)" fill="#083a3e"/>
      <path id="Path_110" data-name="Path 110" d="M813.415,341.712,808.409,327.6a25.189,25.189,0,0,0-13.031-14.376h0a36.043,36.043,0,0,0-21.154-1.158l-1.822.452a35.213,35.213,0,0,0-13.352,6.45c-3.085,2.432-5.86,5.511-6.107,8.823,0,.007,0,.013-.006.021-.854,3.745-1.277,23.2-1.277,23.2H759.2L758,377.244l.1-.19s43.471,8.227,43.471,4V353.979l.891-9.8Z" transform="translate(-507.331 -256.608)" fill="#ffddd2"/>
      <circle id="Ellipse_9" data-name="Ellipse 9" cx="12.047" cy="12.047" r="12.047" transform="translate(253.461 27.703)" fill="#e29578"/>
      <path id="Path_111" data-name="Path 111" d="M778.508,252.89l-10.13-.032a5.1,5.1,0,0,1-3.358-.808c-1.35-1.148-1.124-3.315-.4-4.934a12.891,12.891,0,0,1,11.947-7.236,15.459,15.459,0,0,1,12.265,7.212,19.384,19.384,0,0,1,2.375,14.245,15.531,15.531,0,0,0-12.7-8.855Z" transform="translate(-514.028 -218.136)" fill="#083a3e"/>
    </g>
  </g>
</svg>
