<svg xmlns="http://www.w3.org/2000/svg" width="37.092" height="48.237" viewBox="0 0 37.092 48.237">
  <path id="Path_115" data-name="Path 115" d="M128.292,20.368c-8.329-4.261-12.987-9.417-7.436-16.752,2.245,1.519,4,3.535,6.244,5.055,17.493-16.862,24.672,14.8,9.89,14.553-8.517-.141-4.817-8.228-2.157-12.571.227-.371.487-.764.751-1.152l-.008,12.557a11.049,11.049,0,0,0,2.069.1V6.442l-.516.492c.149-.123.231-.173.258-.161.1-.209-.3.135-1.6,1.432l-.068.068-.122.12-.025.026c-.378.379-.827.833-1.351,1.369-4.875,4.981-7.313,15.413,2.66,15.455a10.292,10.292,0,0,0,5.581-1.9c.231-.169.952-.866,1.412-1.3a13.643,13.643,0,1,1-18.065,19.9,15.169,15.169,0,1,0,19.74-22.095c-.057.1-.113.2-.172.294,3.938-6.537.891-16.484-7.574-17.613-3.919-.522-7.066,1.266-10.888,4.358l-4.708-4.339a1.756,1.756,0,1,0-2.941.3c-7.976,9.882,1.181,14.612,9.022,17.519m17.09-.228h0m-7.738,6.114V42.983h-2.069V26.165a7.253,7.253,0,0,0,2.069.09M129.231,8.573a1.239,1.239,0,1,1-1.238,1.241h0a1.24,1.24,0,0,1,1.238-1.24" transform="translate(-116.193 0)" fill="#055b65" fill-rule="evenodd"/>
</svg>
