<svg xmlns="http://www.w3.org/2000/svg" xmlns:xlink="http://www.w3.org/1999/xlink" width="150.811" height="93.01" viewBox="0 0 150.811 93.01">
  <defs>
    <clipPath id="clip-path">
      <rect id="Rectangle_2" data-name="Rectangle 2" width="150.811" height="93.01" fill="none"/>
    </clipPath>
  </defs>
  <g id="Group_3" data-name="Group 3" opacity="0.298">
    <g id="Group_2" data-name="Group 2" clip-path="url(#clip-path)">
      <path id="Path_1" data-name="Path 1" d="M139.522,39.274c-16.06-8.217-25.04-18.157-14.337-32.3,4.328,2.929,7.71,6.816,12.039,9.747,33.729-32.514,47.572,28.535,19.069,28.061-16.423-.271-9.288-15.865-4.159-24.239.437-.716.939-1.473,1.449-2.221l-.016,24.211a21.3,21.3,0,0,0,3.989.2V12.422l-.995.949c.287-.237.446-.334.5-.311.186-.4-.57.26-3.078,2.76l-.13.13-.235.231-.048.05c-.728.732-1.594,1.606-2.6,2.64-9.4,9.6-14.1,29.719,5.13,29.8,3.616.014,7.233-1.367,10.761-3.659.445-.326,1.836-1.669,2.723-2.51A26.306,26.306,0,1,1,134.742,80.87a29.249,29.249,0,1,0,38.063-42.6c-.109.2-.218.379-.331.566,7.592-12.605,1.718-31.784-14.6-33.961-7.556-1.007-13.624,2.44-20.995,8.4L127.8,4.908a3.385,3.385,0,1,0-5.671.585c-15.38,19.054,2.277,28.174,17.4,33.781m32.952-.439c-.656,1.086-.325.538,0,0m-14.921,11.79V82.88h-3.989V50.451a13.986,13.986,0,0,0,3.989.173m-16.222-34.1a2.39,2.39,0,1,1-2.387,2.392v0a2.391,2.391,0,0,1,2.387-2.39" transform="translate(-36.904 0)" fill="#055b65" fill-rule="evenodd"/>
      <path id="Path_2" data-name="Path 2" d="M13.069,94.893v3.6H4.045v3.735h8.116v3.449H4.045v3.759h9.309v3.579H0V94.893Z" transform="translate(0 -30.139)" fill="#db7f63"/>
      <path id="Path_3" data-name="Path 3" d="M23.331,113.019v-2.775l9.491-11.85h-9.18v-3.5h14.7v2.8l-9.465,11.8H38.5v3.527Z" transform="translate(-7.41 -30.138)" fill="#db7f63"/>
      <rect id="Rectangle_1" data-name="Rectangle 1" width="9.231" height="3.45" transform="translate(34.125 73.363)" fill="#db7f63"/>
      <path id="Path_4" data-name="Path 4" d="M73.928,105.317l3.215-10.424H81.37l3.19,10.424,3.6-10.424h4.382l-6.328,18.125H83.211l-3.967-12.6-3.942,12.6H72.294L65.967,94.894h4.382Z" transform="translate(-20.951 -30.139)" fill="#db7f63"/>
      <path id="Path_5" data-name="Path 5" d="M122.836,110.323a9.877,9.877,0,0,1-13.536,0,9.484,9.484,0,0,1,0-13.355,9.877,9.877,0,0,1,13.536,0,9.485,9.485,0,0,1,0,13.355m-1.374-6.664a5.936,5.936,0,0,0-1.556-4.137,5.131,5.131,0,0,0-7.65,0,6.257,6.257,0,0,0,0,8.26,5.157,5.157,0,0,0,7.65,0,5.887,5.887,0,0,0,1.556-4.123" transform="translate(-33.841 -29.945)" fill="#db7f63"/>
      <path id="Path_6" data-name="Path 6" d="M154.224,110.323a9.877,9.877,0,0,1-13.536,0,9.484,9.484,0,0,1,0-13.355,9.877,9.877,0,0,1,13.536,0,9.485,9.485,0,0,1,0,13.355m-1.374-6.664a5.935,5.935,0,0,0-1.556-4.137,5.131,5.131,0,0,0-7.65,0,6.257,6.257,0,0,0,0,8.26,5.157,5.157,0,0,0,7.65,0,5.887,5.887,0,0,0,1.556-4.123" transform="translate(-43.81 -29.945)" fill="#db7f63"/>
      <path id="Path_7" data-name="Path 7" d="M183.293,94.893v3.552h-8.4v3.916h7.987v3.553h-7.987v7.106h-4.045V94.893Z" transform="translate(-54.262 -30.139)" fill="#db7f63"/>
    </g>
  </g>
</svg>
